<?xml version="1.0" encoding="UTF-8"?>
<svg id="export" xmlns="http://www.w3.org/2000/svg" viewBox="0 0 150 150">
  <defs>
    <style>
      .cls-1 {
        stroke-width: 0px;
      }
    </style>
  </defs>
  <path class="cls-1" d="M135.38,41.36c-.57-6.36-6.68-10.51-12.81-9.69-9.33,1.4-14.42,13.18-10.67,21.39l.48-.23c-2.17-4.51-1.01-10.22,2.3-13.82,2.16-2.3,5.3-2.92,8.29-3.06,6.16-.6,12.07,3.85,10.41,10.46-1.35,4.89-5.51,8.41-9.42,11.39-11.86,8.54-28.24,11.4-42.96,8.71,3.17-6.96,6.33-14.05,11.11-22.24,2.31-3.92,4.32-7.93,9.94-10.75,1.71-1.21,7.13-6.03,7.13-6.93,0-.4-.1-.9-1.1-.9l-46.2-.2c-1.51,0-3.52.3-5.02,1.51-1.41,1.24-2.6,2.7-3.74,4.19-.99,1.3-1.94,2.64-2.9,3.96-1.01,1.41-2.07,2.81-2.62,4.48-.37,1.12-.56,2.3-.59,3.48-.1,3.3.94,6.72,2.62,9.55,4.77,8.04,11.71,13.37,19.66,16.36-1.49,3.14-2.99,6.31-4.6,9.61-.38-.57-.81-1.11-1.28-1.63-4.57-4.84-10.4-5.75-16.71-3.39-20.39,10.14-32.14,26.51-32.14,39.07,0,6.33,2.91,11.85,10.65,11.85,9.01,0,28.05-11.54,42.76-33.54.06.41.1.82.15,1.24.55,5.82,1.36,13.1,6.59,17.12,5.26,4.39,13.27,4.43,18.94.87,7.23-4.42,11.06-13.36,8.21-21.46l-.45.16c1.47,3.56.84,7.78-1.25,10.93-3.87,5.8-11.58,8.82-18.34,7.69-8.01-1.48-11.11-8.07-12.66-15.49-.16-.71-.31-1.44-.46-2.16,1.1-1.68,2.17-3.42,3.21-5.23,2.67-4.6,4.82-8.93,6.82-13.21,19.21,2.86,41.3-5.32,53.05-20.17,2.11-2.84,3.93-6.16,3.59-9.91ZM58.47,90.67c-9.74,17.78-17.27,28.52-25.71,28.52-5.83,0-7.93-5.12-8.13-10.55-.4-11.35,6.43-24.91,22.9-33.64,6.12-3.35,10.11-2.22,14.45,1.38.96.84,1.77,1.79,2.45,2.82-1.78,3.62-3.72,7.4-5.95,11.47ZM71.71,63.97c-1.43-.53-2.83-1.12-4.19-1.78-7.75-3.85-19.63-9.58-19.19-19.7.08-1.85.49-3.69,1.66-5.17.81-1.03,1.81-2.06,2.95-2.73,1.15-.66,2.49-.87,3.81-.86.03,0,40.98.3,40.98.3l-4.62,2.01c-7.63,3.31-10.04,6.63-12.65,11.25-3.45,5.97-6.18,11.37-8.75,16.69Z"/>
</svg>